<?xml version="1.0" encoding="UTF-8" standalone="no"?>
<svg
   xmlns:dc="http://purl.org/dc/elements/1.1/"
   xmlns:cc="http://creativecommons.org/ns#"
   xmlns:rdf="http://www.w3.org/1999/02/22-rdf-syntax-ns#"
   xmlns:svg="http://www.w3.org/2000/svg"
   xmlns="http://www.w3.org/2000/svg"
   xmlns:sodipodi="http://sodipodi.sourceforge.net/DTD/sodipodi-0.dtd"
   xmlns:inkscape="http://www.inkscape.org/namespaces/inkscape"
   width="1000"
   height="1000"
   viewBox="0 0 264.58333 264.58333"
   version="1.1"
   id="svg8"
   inkscape:version="1.0.2 (e86c8708, 2021-01-15)"
   sodipodi:docname="drawing.svg"
   inkscape:export-filename="/Users/gtorok/go/src/github.com/uzudil/isongn/images/drawing.png"
   inkscape:export-xdpi="288"
   inkscape:export-ydpi="288">
  <defs
     id="defs2" />
  <sodipodi:namedview
     id="base"
     pagecolor="#ffffff"
     bordercolor="#666666"
     borderopacity="1.0"
     inkscape:pageopacity="0.0"
     inkscape:pageshadow="2"
     inkscape:zoom="5.656854"
     inkscape:cx="64.913199"
     inkscape:cy="89.047133"
     inkscape:document-units="px"
     inkscape:current-layer="layer1"
     inkscape:document-rotation="0"
     showgrid="true"
     units="px"
     objecttolerance="9.2"
     guidetolerance="10"
     gridtolerance="10000"
     inkscape:snap-global="false"
     inkscape:window-width="1863"
     inkscape:window-height="1174"
     inkscape:window-x="265"
     inkscape:window-y="25"
     inkscape:window-maximized="0">
    <inkscape:grid
       type="axonomgrid"
       id="grid10"
       originx="0"
       originy="0"
       snapvisiblegridlinesonly="true"
       gridanglex="26.57"
       gridanglez="26.57"
       empcolor="#f93fff"
       empopacity="0.25098039"
       spacingy="4.2333333"
       visible="true"
       units="px"
       empspacing="1" />
    <inkscape:grid
       type="xygrid"
       id="grid12"
       originx="0"
       originy="0"
       color="#00fb0c"
       opacity="0"
       empcolor="#ff321d"
       empopacity="0.25098039"
       spacingy="4.2333333"
       visible="true"
       spacingx="4.2333333"
       empspacing="1"
       snapvisiblegridlinesonly="true"
       enabled="true" />
  </sodipodi:namedview>
  <metadata
     id="metadata5">
    <rdf:RDF>
      <cc:Work
         rdf:about="">
        <dc:format>image/svg+xml</dc:format>
        <dc:type
           rdf:resource="http://purl.org/dc/dcmitype/StillImage" />
        <dc:title />
      </cc:Work>
    </rdf:RDF>
  </metadata>
  <g
     inkscape:label="Layer 1"
     inkscape:groupmode="layer"
     id="layer1">
    <path
       style="fill:#800000;stroke:none;stroke-width:0.26458333;stroke-linecap:butt;stroke-linejoin:round;stroke-opacity:1;fill-opacity:1;stroke-miterlimit:4;stroke-dasharray:none"
       d="m 32.693747,17.516177 -1.403167,-0.724969 0.935445,-2.549083 -0.140317,-1.403165 -0.841899,-1.356392 1.660412,0.257246 0.350792,2.455539 0.11693,2.385381 z"
       id="path31" />
    <path
       style="fill:#ff8080;stroke:none;stroke-width:0.26458333;stroke-linecap:butt;stroke-linejoin:round;stroke-opacity:1;fill-opacity:1;stroke-miterlimit:4;stroke-dasharray:none"
       d="m 14.101809,15.504974 1.683798,-0.888671 -0.818513,-1.777343 0.210475,-1.543481 1.239462,-0.912058 -2.291836,0.561267 -0.724969,2.128133 0.350792,2.174906 z"
       id="path29" />
    <g
       id="g893"
       style="stroke:none;stroke-width:0.26458333;stroke-miterlimit:4;stroke-dasharray:none;stroke-linejoin:round">
      <path
         style="fill:#e9c6af;stroke:none;stroke-width:0.26458333;stroke-linecap:butt;stroke-linejoin:round;stroke-opacity:1;fill-opacity:1;stroke-miterlimit:4;stroke-dasharray:none"
         d="M 0.77174076,8.7931674 1.4265511,8.4423762 V 5.9634513 L 0.88867116,5.3554132 0.37417734,6.0336096 0.49110775,8.3488317 Z"
         id="path884" />
      <path
         style="fill:#a05a2c;fill-opacity:1;stroke:none;stroke-width:0.26458333;stroke-linecap:butt;stroke-linejoin:round;stroke-opacity:1;stroke-miterlimit:4;stroke-dasharray:none"
         d="m 7.6004771,8.8633257 c 0,0.023386 -0.6548104,-0.3741775 -0.6548104,-0.3741775 V 5.6126599 L 7.7407936,5.2150967 7.9746545,6.0569956 7.88111,8.4423762 Z"
         id="path886"
         sodipodi:nodetypes="ccccccc" />
      <path
         style="fill:#d38d5f;stroke:none;stroke-width:0.26458333;stroke-linecap:butt;stroke-linejoin:round;stroke-opacity:1;stroke-miterlimit:4;stroke-dasharray:none"
         d="M 0,4.2333333 4.2324194,2.1166666 8.4648386,4.2333333 4.2324194,6.3499999 Z"
         id="path55" />
      <path
         style="fill:#a05a2c;stroke:none;stroke-width:0.26458333;stroke-linecap:butt;stroke-linejoin:round;stroke-opacity:1;stroke-miterlimit:4;stroke-dasharray:none"
         d="M 0,4.2333333 V 8.4666666 L 0.79512683,8.8399394 0.77174076,5.6360461 3.4611402,6.9456667 3.4845265,10.219718 4.2333333,10.58379 V 6.3504571 Z"
         id="path880" />
      <path
         style="fill:#e9c6af;stroke:none;stroke-width:0.26458333;stroke-linecap:butt;stroke-linejoin:round;stroke-opacity:1;stroke-miterlimit:4;stroke-dasharray:none"
         d="M 4.2333333,10.58379 5.0046217,10.196332 5.028008,6.9924389 7.6238631,5.5892739 7.5537048,8.9100979 8.4648386,8.4666666 V 4.2333333 L 4.2333333,6.3504571 Z"
         id="path882" />
    </g>
    <path
       style="fill:#ff5555;stroke:none;stroke-width:0.26458333;stroke-linecap:butt;stroke-linejoin:round;stroke-opacity:1;stroke-miterlimit:4;stroke-dasharray:none"
       d="M 21.164406,2.1047476 12.675258,6.3610151 25.420674,12.745416 33.816279,8.5125347 Z"
       id="path23" />
    <path
       style="fill:#800000;stroke:none;stroke-width:0.26458333;stroke-linecap:butt;stroke-linejoin:round;stroke-opacity:1;stroke-miterlimit:4;stroke-dasharray:none"
       d="m 12.698644,6.3142428 -0.02339,8.4891492 1.403165,0.701582 -0.07016,-3.157121 0.841899,-1.356393 2.432153,-0.257247 2.128134,0.420949 1.964431,1.426551 2.245064,2.595856 0.420949,2.642627 -0.444335,2.408767 1.824114,0.95883 v -8.489149 z"
       id="path25" />
    <path
       style="fill:#ff8080;stroke:none;stroke-width:0.26458333;stroke-linecap:butt;stroke-linejoin:round;stroke-opacity:1;stroke-miterlimit:4;stroke-dasharray:none"
       d="m 25.373901,21.187793 2.408767,-1.192691 -1.099145,-1.8475 -0.537881,-1.707185 0.07016,-1.964431 2.245063,-2.128133 1.707184,-0.701583 1.543481,0.140316 0.935445,1.192691 0.561266,2.478925 -0.584652,2.128133 1.192691,-0.631424 V 8.5125347 l -8.395605,4.2328813 z"
       id="path27" />
    <path
       style="fill:#333333;stroke:none;stroke-width:0.13229167;stroke-linecap:butt;stroke-linejoin:round;stroke-opacity:1;stroke-miterlimit:4;stroke-dasharray:none"
       d="m 43.722397,3.6371069 -0.132291,7.0114591 -0.926042,2.976562 0.727604,2.38125 -0.396875,3.571875 -0.330729,2.910417 0.529167,1.785938 -0.859896,5.423957 2.050521,0.529166 1.058333,0.33073 0.661458,1.124479 2.513542,0.396877 1.058333,0.33073 1.5875,1.785937 1.91823,0.132292 1.058333,0.661458 0.264583,0.859896 1.852083,0.06615 0.859896,0.926041 2.035895,1.256765 3.255772,-14.221353 0.396875,-12.170834 -8.73125,-4.8286464 -8.268229,-3.5057291 z"
       id="path36" />
    <path
       style="fill:#999999;stroke:none;stroke-width:0.13229167;stroke-linecap:butt;stroke-linejoin:round;stroke-opacity:1;stroke-miterlimit:4;stroke-dasharray:none"
       d="M 46.566666,2.1216945 63.484462,10.582419 60.920314,11.839191 58.340626,10.979295 58.142189,10.119399 56.422397,9.987107 55.760939,9.0610651 53.84271,9.1933568 53.578127,8.1350235 50.601564,7.8042943 49.543231,6.745961 47.757293,6.6798151 46.963543,5.4230443 46.69896,4.5631485 45.11146,4.6292945 43.722397,3.5709612 Z"
       id="path32" />
    <path
       style="fill:#666666;stroke:none;stroke-width:0.13229167;stroke-linecap:butt;stroke-linejoin:round;stroke-opacity:1;stroke-miterlimit:4;stroke-dasharray:none"
       d="M 63.499999,10.574649 V 35.99019 l -4.247957,2.108896 0.609939,-9.392709 0.264583,-4.89479 -0.198438,-3.439584 0.463021,-2.447396 0.727604,-2.248958 0.132292,-2.116667 -0.264583,-1.852083 z"
       id="path34" />
    <path
       style="fill:#666666;fill-opacity:1;stroke:none;stroke-width:0.26458300000000001px;stroke-linecap:butt;stroke-linejoin:miter;stroke-opacity:1"
       d="m 53.908856,9.3256484 -0.330729,4.8286466 -1.521355,3.770312 -0.06615,5.225521 -0.06615,2.976563 0.595312,-4.431771 0.198438,-3.373438 1.719791,-3.638021 1.190625,-5.6223959 z"
       id="path38" />
    <path
       style="fill:#666666;fill-opacity:1;stroke:none;stroke-width:0.26458300000000001px;stroke-linecap:butt;stroke-linejoin:miter;stroke-opacity:1"
       d="m 56.488543,9.8548154 -0.264583,4.4979166 -0.79375,4.696355 2.579687,-8.797396 z"
       id="path40" />
    <path
       style="fill:#666666;fill-opacity:1;stroke:none;stroke-width:0.26458300000000001px;stroke-linecap:butt;stroke-linejoin:miter;stroke-opacity:1"
       d="M 49.87396,6.8782526 48.352606,17.660024 47.757293,27.71419 47.625002,15.543357 47.757293,6.745961 Z"
       id="path42" />
    <path
       style="fill:#666666;fill-opacity:1;stroke:none;stroke-width:0.26458300000000001px;stroke-linecap:butt;stroke-linejoin:miter;stroke-opacity:0"
       d="M 46.566668,4.6292943 45.772918,16.601691 45.11146,4.6954402 Z"
       id="path44" />
    <path
       style="fill:#666666;fill-opacity:1;stroke:none;stroke-width:0.26458300000000001px;stroke-linecap:butt;stroke-linejoin:miter;stroke-opacity:1"
       d="m 45.574481,30.492315 0.330729,-9.326562 -2.248958,8.797395 z"
       id="path46" />
    <path
       style="fill:#666666;fill-opacity:1;stroke:none;stroke-width:0.26458300000000001px;stroke-linecap:butt;stroke-linejoin:miter;stroke-opacity:1"
       d="m 51.46146,34.196484 2.513542,-11.972397 -0.33073,7.408332 -0.396875,4.564065 z"
       id="path48" />
    <path
       style="fill:#666666;fill-opacity:1;stroke:none;stroke-width:0.26458300000000001px;stroke-linecap:butt;stroke-linejoin:miter;stroke-opacity:1"
       d="m 54.570314,35.85013 1.918229,-7.739065 0.06615,-4.43177 0.529167,6.283853 -0.79375,5.953128 z"
       id="path50" />
    <path
       id="path937"
       style="fill:none;stroke:none;stroke-width:1;stroke-linecap:butt;stroke-linejoin:round;stroke-miterlimit:4;stroke-dasharray:none;stroke-opacity:1;paint-order:normal"
       d="M 176 8.0195312 L 165.25 13.496094 L 165.5332 13.710938 L 165.25 13.746094 L 164.75 40.246094 L 161.25 51.496094 L 164 60.496094 L 162.5 73.996094 L 161.25 84.996094 L 163.25 91.746094 L 160 112.24609 L 167.75 114.24609 L 171.75 115.49609 L 174.25 119.74609 L 183.75 121.24609 L 187.75 122.49609 L 193.75 129.24609 L 201 129.74609 L 205 132.24609 L 206 135.49609 L 209.5 135.62109 L 212.75 135.74609 L 212.75195 135.73633 L 213 135.74609 L 216.25 139.24609 L 223.94531 143.99609 L 240 136.02539 L 240 39.966797 L 239.9375 39.994141 L 176 8.0195312 z "
       transform="scale(0.26458333)" />
    <path
       style="fill:#c8b7b7;stroke:none;stroke-width:0.26458300000000001px;stroke-linecap:butt;stroke-linejoin:miter;stroke-opacity:1;fill-opacity:1"
       d="M 16.933333,21.166666 33.859356,29.633333 16.933333,38.101828 0,29.633333 Z"
       id="path958" />
    <g
       id="g1028"
       style="stroke:#ac9393">
      <path
         style="fill:none;fill-opacity:1;stroke:#ac9393;stroke-width:0.264583;stroke-linejoin:round;stroke-miterlimit:4;stroke-dasharray:none;stroke-opacity:1;paint-order:normal"
         d="m 15.52836,23.853806 c 0.75254,1.10324 0.834679,-0.561266 1.309621,-0.561266 0.09518,0 0.264976,0.31351 0.374177,0.374177 0.763185,0.423992 0.960126,0.420386 1.309621,1.169305 0.105124,0.225267 0.09354,0.163845 0.09354,0.327405"
         id="path974" />
      <path
         style="fill:none;fill-opacity:1;stroke:#ac9393;stroke-width:0.264583;stroke-linejoin:round;stroke-miterlimit:4;stroke-dasharray:none;stroke-opacity:1;paint-order:normal"
         d="m 20.532982,26.800452 c 0.604366,-0.119295 0.748173,0.46754 1.07576,0.795126"
         id="path976" />
      <path
         style="fill:none;fill-opacity:1;stroke:#ac9393;stroke-width:0.264583;stroke-linejoin:round;stroke-miterlimit:4;stroke-dasharray:none;stroke-opacity:1;paint-order:normal"
         d="m 25.303743,28.531023 c 1.460917,0.05038 1.154074,-0.357867 1.496709,0.327406 0.07637,0.152749 0.09354,0.189982 0.09354,0.374177"
         id="path978" />
      <path
         style="fill:none;fill-opacity:1;stroke:#ac9393;stroke-width:0.264583;stroke-linejoin:round;stroke-miterlimit:4;stroke-dasharray:none;stroke-opacity:1;paint-order:normal"
         d="m 15.996082,27.595578 c 0.265768,0.02658 0.6957,0.03956 0.935443,0.18709 0.07742,0.04765 0.08818,0.159385 0.140316,0.23386 0.05725,0.08179 0.124726,0.155908 0.187089,0.233862"
         id="path980" />
      <path
         style="fill:none;fill-opacity:1;stroke:#ac9393;stroke-width:0.264583;stroke-linejoin:round;stroke-miterlimit:4;stroke-dasharray:none;stroke-opacity:1;paint-order:normal"
         d="m 22.21678,31.103493 c 0.348644,0.07677 0.580901,0.259561 0.701583,0.561266"
         id="path982" />
      <path
         style="fill:none;fill-opacity:1;stroke:#ac9393;stroke-width:0.264583;stroke-linejoin:round;stroke-miterlimit:4;stroke-dasharray:none;stroke-opacity:1;paint-order:normal"
         d="m 8.1383573,27.174629 c 0.6573403,0.657341 0.3516669,0.479853 0.7951269,0.701582"
         id="path984" />
      <path
         style="fill:none;fill-opacity:1;stroke:#ac9393;stroke-width:0.264583;stroke-linejoin:round;stroke-miterlimit:4;stroke-dasharray:none;stroke-opacity:1;paint-order:normal"
         d="m 12.020447,29.513239 c 0.83068,-0.03612 1.469243,-0.133882 2.291837,0.140316 0.08602,0.02867 0.224579,0.402386 0.280633,0.514493"
         id="path986" />
      <path
         style="fill:none;fill-opacity:1;stroke:#ac9393;stroke-width:0.264583;stroke-linejoin:round;stroke-miterlimit:4;stroke-dasharray:none;stroke-opacity:1;paint-order:normal"
         d="m 16.978297,32.459885 c 1.868998,0.05051 1.352006,-0.239094 2.619242,0.561266 0.02362,0.01492 -0.0036,0.183462 0.04677,0.233862"
         id="path988" />
      <path
         style="fill:none;fill-opacity:1;stroke:#ac9393;stroke-width:0.264583;stroke-linejoin:round;stroke-miterlimit:4;stroke-dasharray:none;stroke-opacity:1;paint-order:normal"
         d="m 11.833359,32.272795 c 0.685992,0.280636 1.371983,0.561269 2.057975,0.841902"
         id="path990" />
      <path
         style="fill:none;fill-opacity:1;stroke:#ac9393;stroke-width:0.264583;stroke-linejoin:round;stroke-miterlimit:4;stroke-dasharray:none;stroke-opacity:1;paint-order:normal"
         d="m 8.044813,30.448681 c 0.6128594,-0.182788 0.5555748,-0.01252 0.7951269,0.514495 0.037618,0.08276 0.099661,0.152549 0.1403165,0.23386"
         id="path992" />
      <path
         style="fill:none;fill-opacity:1;stroke:#ac9393;stroke-width:0.264583;stroke-linejoin:round;stroke-miterlimit:4;stroke-dasharray:none;stroke-opacity:1;paint-order:normal"
         d="m 4.0691786,29.419695 c 0.3118239,-0.04412 0.7432495,-0.22678 0.9354434,0.09354 0.1551072,0.258511 0.027892,0.121435 0.1403165,0.23386"
         id="path994" />
      <path
         style="fill:none;fill-opacity:1;stroke:#ac9393;stroke-width:0.264583;stroke-linejoin:round;stroke-miterlimit:4;stroke-dasharray:none;stroke-opacity:1;paint-order:normal"
         d="m 15.996082,34.798494 c 0.904824,-0.422251 0.447987,-0.419489 1.262848,-0.09355 0.04578,0.01831 0.0993,0.01942 0.140317,0.04677 0.01297,0.0087 -0.0049,0.03198 0,0.04677 0.05771,0.17312 0.124726,0.342996 0.187088,0.514493"
         id="path996" />
      <path
         style="fill:none;fill-opacity:1;stroke:#ac9393;stroke-width:0.264583;stroke-linejoin:round;stroke-miterlimit:4;stroke-dasharray:none;stroke-opacity:1;paint-order:normal"
         d="m 12.067219,25.44406 c 0.124726,0 0.252221,-0.02613 0.374178,0 0.27432,0.05878 0.225971,0.109056 0.374177,0.233861 0.42376,0.35685 0.755568,0.615251 1.122532,0.982215"
         id="path998" />
      <path
         style="fill:none;fill-opacity:1;stroke:#ac9393;stroke-width:0.264583;stroke-linejoin:round;stroke-miterlimit:4;stroke-dasharray:none;stroke-opacity:1;paint-order:normal"
         d="m 11.038232,27.782668 c 0.349424,-0.06703 0.707844,0.106069 0.841899,0.374179"
         id="path1000" />
      <path
         style="fill:none;fill-opacity:1;stroke:#ac9393;stroke-width:0.264583;stroke-linejoin:round;stroke-miterlimit:4;stroke-dasharray:none;stroke-opacity:1;paint-order:normal"
         d="m 20.299121,24.461844 c 0.283121,0.229941 0.584221,0.443042 0.701583,0.795127"
         id="path1002" />
      <path
         style="fill:none;fill-opacity:1;stroke:#ac9393;stroke-width:0.264583;stroke-linejoin:round;stroke-miterlimit:4;stroke-dasharray:none;stroke-opacity:1;paint-order:normal"
         d="m 29.560012,29.326149 c 0.140316,0.06236 0.280633,0.124727 0.420949,0.18709"
         id="path1004" />
      <path
         style="fill:none;fill-opacity:1;stroke:#ac9393;stroke-width:0.264583;stroke-linejoin:round;stroke-miterlimit:4;stroke-dasharray:none;stroke-opacity:1;paint-order:normal"
         d="m 26.052098,31.617986 c 0.140422,0.224493 0.381714,0.334941 0.561265,0.514493"
         id="path1006" />
      <path
         style="fill:none;fill-opacity:1;stroke:#ac9393;stroke-width:0.264583;stroke-linejoin:round;stroke-miterlimit:4;stroke-dasharray:none;stroke-opacity:1;paint-order:normal"
         d="m 21.702286,34.564632 c 0.155908,0.03118 0.311815,0.06236 0.467722,0.09355"
         id="path1008" />
    </g>
  </g>
</svg>
