<?xml version="1.0" encoding="UTF-8" standalone="no"?>
<!-- Created with Inkscape (http://www.inkscape.org/) -->

<svg
   xmlns:dc="http://purl.org/dc/elements/1.1/"
   xmlns:cc="http://creativecommons.org/ns#"
   xmlns:rdf="http://www.w3.org/1999/02/22-rdf-syntax-ns#"
   xmlns:svg="http://www.w3.org/2000/svg"
   xmlns="http://www.w3.org/2000/svg"
   xmlns:sodipodi="http://sodipodi.sourceforge.net/DTD/sodipodi-0.dtd"
   xmlns:inkscape="http://www.inkscape.org/namespaces/inkscape"
   width="1000"
   height="1000"
   viewBox="0 0 264.58333 264.58334"
   version="1.1"
   id="svg8"
   inkscape:version="1.0.2 (e86c8708, 2021-01-15)"
   sodipodi:docname="tiles.svg"
   inkscape:export-filename="/Users/gtorok/go/src/github.com/uzudil/isongn/game/images/tiles.png"
   inkscape:export-xdpi="287.99997"
   inkscape:export-ydpi="287.99997">
  <defs
     id="defs2">
    <filter
       inkscape:collect="always"
       style="color-interpolation-filters:sRGB"
       id="filter1066"
       x="-3.0719998e-05"
       width="1.0000614"
       y="-1.3963635e-05"
       height="1.0000279">
      <feGaussianBlur
         inkscape:collect="always"
         stdDeviation="0.00013546665"
         id="feGaussianBlur1068" />
    </filter>
  </defs>
  <sodipodi:namedview
     id="base"
     pagecolor="#ffffff"
     bordercolor="#666666"
     borderopacity="1.0"
     inkscape:pageopacity="0.0"
     inkscape:pageshadow="2"
     inkscape:zoom="5.6568542"
     inkscape:cx="4.0227948"
     inkscape:cy="5.0883589"
     inkscape:document-units="px"
     inkscape:current-layer="layer1"
     inkscape:document-rotation="0"
     showgrid="true"
     units="px"
     inkscape:snap-global="false"
     inkscape:window-width="1815"
     inkscape:window-height="1093"
     inkscape:window-x="28"
     inkscape:window-y="25"
     inkscape:window-maximized="0">
    <inkscape:grid
       type="axonomgrid"
       id="grid833"
       originx="0"
       originy="0"
       spacingy="4.2333334"
       gridanglex="45"
       gridanglez="45"
       units="px" />
    <inkscape:grid
       type="xygrid"
       id="grid835"
       spacingx="2.1166667"
       spacingy="2.1166667"
       originy="0" />
  </sodipodi:namedview>
  <metadata
     id="metadata5">
    <rdf:RDF>
      <cc:Work
         rdf:about="">
        <dc:format>image/svg+xml</dc:format>
        <dc:type
           rdf:resource="http://purl.org/dc/dcmitype/StillImage" />
        <dc:title></dc:title>
      </cc:Work>
    </rdf:RDF>
  </metadata>
  <g
     inkscape:label="Layer 1"
     inkscape:groupmode="layer"
     id="layer1"
     style="display:inline">
    <path
       style="fill:#5fd35f;fill-opacity:1;stroke:none;stroke-width:0.264583px;stroke-linecap:butt;stroke-linejoin:miter;stroke-opacity:1"
       d="M 8.4666666,0 4.2333333,4.2333333 c 0,0 4.2333333,4.2333333 4.2333333,4.2333333 0,0 4.2333334,-4.2333333 4.2333334,-4.2333333 z"
       id="path837" />
    <path
       style="fill:#2ca02c;fill-opacity:1;stroke:none;stroke-width:0.264583px;stroke-linecap:butt;stroke-linejoin:miter;stroke-opacity:1"
       d="M 4.2333333,4.2333333 V 6.3499999 L 8.4666666,10.583333 V 8.4666666 Z"
       id="path839" />
    <path
       style="fill:#afe9af;fill-opacity:1;stroke:none;stroke-width:0.264999;stroke-linejoin:round"
       d="M 8.4666666,8.4666666 12.7,4.2333333 V 6.3499999 L 8.4666666,10.583333 Z"
       id="path841" />
    <path
       style="fill:#5fd35f;fill-opacity:1;stroke:none;stroke-width:0.264583px;stroke-linecap:butt;stroke-linejoin:miter;stroke-opacity:1"
       d="m 16.933334,0 -4.233333,4.2333333 c 0,0 4.233333,4.2333333 4.233333,4.2333333 0,0 4.233334,-4.2333333 4.233334,-4.2333333 z"
       id="path911" />
    <path
       style="fill:#2ca02c;fill-opacity:1;stroke:none;stroke-width:0.264583px;stroke-linecap:butt;stroke-linejoin:miter;stroke-opacity:1"
       d="m 12.700001,4.2333333 v 2.1166666 l 4.233333,4.2333331 V 8.4666666 Z"
       id="path913" />
    <path
       style="fill:#afe9af;fill-opacity:1;stroke:none;stroke-width:0.264999;stroke-linejoin:round"
       d="M 16.933334,8.4666666 21.166668,4.2333333 V 6.3499999 L 16.933334,10.583333 Z"
       id="path915" />
    <path
       style="fill:#37abc8;fill-opacity:1;stroke:#2ca02c;stroke-width:0.264999;stroke-linejoin:round"
       d="m 16.971615,2.6058779 c 0,0 1.5368,-0.2004522 1.5368,1.3363476 0,1.5367997 0.701582,2.271791 -0.634765,2.5056517 -1.336348,0.233861 -1.570209,0.100226 -2.271791,-0.868626 -0.701583,-0.968852 -1.503392,-1.8040691 -0.968853,-2.4388344 0.53454,-0.634765 2.338609,-0.5345389 2.338609,-0.5345389 z"
       id="path951" />
    <g
       id="g977"
       style="fill:none">
      <path
         style="fill:none;fill-opacity:1;stroke:#2ca02c;stroke-width:0.264999;stroke-linejoin:round"
         d="m 16.938206,1.1358955 c 0.06806,0.2211766 0.100226,0.4346968 0.100226,0.6681738"
         id="path953" />
      <path
         style="fill:none;fill-opacity:1;stroke:#2ca02c;stroke-width:0.264999;stroke-linejoin:round"
         d="m 18.307962,2.2383823 c 0,0.1559072 0,0.3118144 0,0.4677218"
         id="path955" />
      <path
         style="fill:none;fill-opacity:1;stroke:#2ca02c;stroke-width:0.264999;stroke-linejoin:round"
         d="m 19.343632,3.5413211 c -0.03465,0.6930443 0.06632,0.4687142 -0.06682,0.7349914"
         id="path957" />
      <path
         style="fill:none;fill-opacity:1;stroke:#2ca02c;stroke-width:0.264999;stroke-linejoin:round"
         d="m 14.265511,4.7106255 c 0,0.100226 0,0.200452 0,0.300678"
         id="path959" />
      <path
         style="fill:none;fill-opacity:1;stroke:#2ca02c;stroke-width:0.264999;stroke-linejoin:round"
         d="m 16.403667,6.9824163 c 0.173597,0.2217091 0.167044,0.204526 0.167044,0.4009043"
         id="path961" />
      <path
         style="fill:none;fill-opacity:1;stroke:#2ca02c;stroke-width:0.264999;stroke-linejoin:round"
         d="m 17.740015,6.7485555 c -0.0366,0.4025668 0.0055,0.2508041 -0.06682,0.4677217"
         id="path963" />
      <path
         style="fill:none;fill-opacity:1;stroke:#2ca02c;stroke-width:0.264999;stroke-linejoin:round"
         d="M 19.944988,4.1760864 C 19.774803,4.7547178 19.777945,4.5466997 19.777945,4.7774428"
         id="path965" />
      <path
         style="fill:none;fill-opacity:1;stroke:#2ca02c;stroke-width:0.264999;stroke-linejoin:round"
         d="m 15.735493,1.9711127 c 0,0.1002261 0,0.2004522 0,0.3006782"
         id="path967" />
    </g>
    <path
       style="fill:none;fill-opacity:1;stroke:#5f985f;stroke-width:0.132292;stroke-linejoin:round;stroke-miterlimit:4;stroke-dasharray:none;stroke-opacity:1"
       d="m 7.0625972,3.6482289 0.058465,0.257247 z"
       id="path1941" />
    <path
       style="fill:none;fill-opacity:1;stroke:#5f985f;stroke-width:0.132292;stroke-linejoin:round;stroke-miterlimit:4;stroke-dasharray:none;stroke-opacity:1"
       d="M 7.3549231,3.5780707 7.3432312,3.9054759 Z"
       id="path1943" />
    <path
       style="fill:none;fill-opacity:1;stroke:#5f985f;stroke-width:0.132292;stroke-linejoin:round;stroke-miterlimit:4;stroke-dasharray:none;stroke-opacity:1"
       d="M 7.5420119,3.8353177 7.6706353,3.624843 Z"
       id="path1945" />
  </g>
  <g
     inkscape:groupmode="layer"
     id="layer2"
     inkscape:label="Layer 2"
     style="display:none;filter:url(#filter1066)">
    <path
       style="fill:#6f8a91;fill-opacity:1;stroke:none;stroke-width:0.264999;stroke-linejoin:round"
       d="M 29.633333,0 21.166667,8.4666666 23.283333,10.583333 31.75,2.1166667 Z"
       id="path980" />
    <path
       style="fill:#53676c;fill-opacity:1;stroke:none;stroke-width:0.264999;stroke-linejoin:round"
       d="M 21.166667,8.4666666 V 21.166667 l 2.116666,2.116666 v -12.7 z"
       id="path982" />
    <path
       style="fill:#93a7ac;fill-opacity:1;stroke:none;stroke-width:0.264999;stroke-linejoin:round"
       d="M 23.283333,23.283333 31.75,14.816667 V 2.1166667 l -8.466667,8.4666663 z"
       id="path984" />
    <path
       style="fill:none;fill-opacity:1;stroke:#53676c;stroke-width:0.264999;stroke-linejoin:round;stroke-opacity:1"
       d="m 24.989701,9.5548856 c -0.27397,0.028446 -0.362382,0.2621553 -0.53454,0.4343128 -0.138431,0.1384316 -0.307306,0.2527306 -0.434313,0.4009046 -0.24343,0.284002 -0.318272,0.262923 -0.400904,0.634765 -0.0076,0.03438 -0.03341,0.06501 -0.03341,0.100226 0,0.110267 0.138893,0.219916 0.200453,0.267269 0.275797,0.212153 0.345797,0.24471 0.634765,0.100227 0.130196,-0.0651 0.128356,0.0053 0.267269,-0.133635 0.03522,-0.03522 0.03624,-0.09432 0.06682,-0.133635 0.04834,-0.06216 0.116632,-0.10655 0.167043,-0.167043 0.117223,-0.140668 0.361077,-0.518872 0.467722,-0.668174 0.207391,-0.290348 0.404996,-0.4588627 0.467722,-0.8352174 0.05299,-0.3179191 -0.517075,-0.2170721 -0.668174,-0.2338609 -0.035,-0.00389 -0.06501,-0.033409 -0.100226,-0.033409 -0.01114,0 0.0035,0.022844 0,0.033409 -0.02022,0.060678 -0.02859,0.062001 -0.06682,0.100226"
       id="path1000" />
    <path
       style="fill:none;fill-opacity:1;stroke:#53676c;stroke-width:0.264999;stroke-linejoin:round;stroke-opacity:1"
       d="m 26.125596,8.3187639 c -0.05568,0.2895421 -0.12221,0.5772074 -0.167043,0.8686261 -0.0017,0.011007 0.02553,-0.00787 0.03341,0 0.0079,0.00787 -0.01056,0.029887 0,0.033409 0.234906,0.078302 0.327536,-0.041633 0.534539,-0.1336347 0.0235,-0.010438 0.139698,-0.039471 0.167045,-0.066818 C 26.76076,8.9531313 26.604523,8.6084419 26.559909,8.519216 26.462841,8.3250801 26.322482,8.3468905 26.125596,8.3187639 Z"
       id="path1002" />
    <path
       style="fill:none;fill-opacity:1;stroke:#53676c;stroke-width:0.264999;stroke-linejoin:round;stroke-opacity:1"
       d="m 27.127856,7.3499119 c -0.589121,0.6566379 -0.182661,1.0108449 0.06682,1.7038434 0.02641,0.073345 -0.01786,0.1579792 0,0.2338607 0.04184,0.1778341 0.139329,0.4840869 0.233862,0.6681737 0.172961,0.3368183 0.353896,0.6694993 0.534538,1.0022603 0.03098,0.05707 0.04739,0.129301 0.100227,0.167044 0.110508,0.07894 0.259987,-0.05083 0.334086,-0.100226 0.05403,-0.03602 0.133012,-0.04492 0.167043,-0.100226 0.176244,-0.286396 0.09676,-0.755666 0.133635,-1.0690783 0.0054,-0.045601 0.03141,-0.087762 0.03341,-0.1336347 0.02585,-0.5943857 0.082,-1.7828215 -0.267269,-2.2717911 -0.06473,-0.090619 -0.09706,-0.2259105 -0.200453,-0.2672693 -0.235625,-0.09425 -0.876348,0.1151337 -1.135896,0.1670433 z"
       id="path1004" />
    <path
       style="fill:none;fill-opacity:1;stroke:#53676c;stroke-width:0.264999;stroke-linejoin:round;stroke-opacity:1"
       d="m 28.798292,5.6460688 c -0.04454,0.1893157 -0.115483,0.3743108 -0.133636,0.5679477 -0.01831,0.1953379 -0.01871,0.567812 0.167045,0.7349911 0.05235,0.047117 0.13045,0.05904 0.200451,0.066817 0.470233,0.052248 0.952799,-0.168344 1.169305,-0.6013563 0.09832,-0.1966373 0.226515,-0.9391163 -0.03341,-1.0690781 -0.07043,-0.035216 -0.156189,-0.020463 -0.23386,-0.033409 -0.122814,-0.020468 -0.244885,-0.04518 -0.367496,-0.066817 -0.08842,-0.015602 -0.180168,-0.055184 -0.267271,-0.033409 -0.149283,0.037321 -0.307962,0.216444 -0.434311,0.3006781"
       id="path1006" />
    <path
       style="fill:none;fill-opacity:1;stroke:#53676c;stroke-width:0.264999;stroke-linejoin:round;stroke-opacity:1"
       d="m 30.86963,3.7417734 c -0.476654,-0.2687248 -0.772398,1.12625 -0.634764,1.2027128 0.04187,0.023259 0.435147,0.1075573 0.501129,0.100226 0.522869,-0.058096 0.614809,-0.351759 0.701582,-0.8352171 0.294815,-1.6425313 0.01802,-0.2831973 0.100227,-1.2695303 0.0011,-0.011097 0.03341,0.011136 0.03341,0 0,-0.035216 -0.06713,0.021373 -0.100227,0.033409 -0.09929,0.036104 -0.204499,0.056509 -0.300678,0.1002261 -0.05735,0.026069 -0.08909,0.08909 -0.133636,0.1336349 -0.176937,0.1769388 -0.167042,0.2827774 -0.167042,0.534539 z"
       id="path1008" />
    <path
       style="fill:none;fill-opacity:1;stroke:#53676c;stroke-width:0.264999;stroke-linejoin:round;stroke-opacity:1"
       d="m 31.10349,5.7462948 c -0.130759,0.03736 -0.345008,0.072876 -0.434313,0.2004521 -0.02649,0.037845 -0.04277,0.2685367 -0.03341,0.334087 0.01606,0.1124262 -0.0092,0.2496727 0.06682,0.334087 0.06648,0.073863 0.614195,-0.1130639 0.701582,-0.2004523 0.07674,-0.076737 -0.05599,-0.6088851 -0.133633,-0.6347651 -0.05387,-0.017957 -0.111363,-0.022273 -0.167045,-0.033409 z"
       id="path1010" />
    <path
       style="fill:none;fill-opacity:1;stroke:#53676c;stroke-width:0.264999;stroke-linejoin:round;stroke-opacity:1"
       d="m 31.203717,7.1160512 c -0.167045,-0.011136 -0.335523,-0.057943 -0.501131,-0.033409 -0.143206,0.021217 -0.26506,0.1169955 -0.400902,0.1670436 -0.106326,0.039172 -0.3165,0.061536 -0.400905,0.1670434 -0.29609,0.3701105 -0.200454,1.2341709 -0.200454,1.637026 0,0.1674746 -0.137765,0.7659015 0.267269,0.6013563 1.219346,-0.4953587 0.925902,-0.5584073 1.236123,-1.737252 0.01516,-0.057612 0.266787,-0.56891 0.200451,-0.7015824 -0.02843,-0.056861 -0.199218,-0.099733 -0.200451,-0.1002259 z"
       id="path1012" />
    <path
       style="fill:none;fill-opacity:1;stroke:#53676c;stroke-width:0.264999;stroke-linejoin:round;stroke-opacity:1"
       d="m 29.399648,10.924642 c 0.405357,0.0833 0.289165,-0.71253 0.601355,-0.868626 0.230122,-0.1150607 1.372468,-0.4234683 1.469983,-0.03341 0.05826,0.233055 -0.147169,0.469628 -0.267269,0.634765 -0.07995,0.109936 -0.150979,0.226342 -0.23386,0.334087 -0.244311,0.317604 -0.848323,0.47732 -1.202714,0.601357 -0.521859,0.18265 -1.045681,0.359696 -1.570209,0.534539 -0.05387,0.01796 -0.167042,0.09019 -0.167042,0.03341 0,-0.04725 0.06998,-0.06393 0.100227,-0.100226 0.02939,-0.03527 0.111622,-0.200609 0.167042,-0.233861 0.240765,-0.144459 0.460901,-0.323312 0.701582,-0.467721 0.09405,-0.05643 0.20942,-0.0728 0.300678,-0.133635 0.03251,-0.02167 0.01868,-0.130213 0.03341,-0.167043 0.01849,-0.04624 0.04454,-0.08909 0.06682,-0.133635 z"
       id="path1014" />
    <path
       style="fill:none;fill-opacity:1;stroke:#53676c;stroke-width:0.264999;stroke-linejoin:round;stroke-opacity:1"
       d="m 27.695805,11.358955 c -0.12586,-0.09201 -0.364387,-0.303166 -0.53454,-0.167044 -0.301919,0.241537 -0.367499,0.65705 -0.46772,1.002261 -0.183581,0.632335 -0.367497,1.172016 -0.367497,1.837478 0,0.15173 0.03811,0.475814 0.233861,0.534539 0.150847,0.04525 0.318312,-0.01701 0.467723,-0.06682 0.09088,-0.03029 0.170214,-0.09544 0.23386,-0.167044 0.456996,-0.514121 0.374613,-0.90584 0.400904,-1.5368 0.01225,-0.294246 0.224888,-1.059595 0.133633,-1.302938 -0.01955,-0.05214 -0.06682,-0.08909 -0.100224,-0.133635 z"
       id="path1016" />
    <path
       style="fill:none;fill-opacity:1;stroke:#53676c;stroke-width:0.264999;stroke-linejoin:round;stroke-opacity:1"
       d="m 26.5265,9.5214767 c 0.09644,0.1363117 0.208018,0.2619158 0.300678,0.4009043 0.175988,0.263979 -0.266142,1.241935 -0.367496,1.469982 -0.174604,0.392862 -0.299068,0.941406 -0.801808,1.03567 -0.126561,0.02373 -0.835217,0.05468 -0.835217,-0.200452 0,-0.063 0.09584,-0.08324 0.133635,-0.133635 0.06303,-0.08405 0.112991,-0.177182 0.167043,-0.26727 0.129939,-0.216564 0.09828,-0.25256 0.233861,-0.50113 0.0814,-0.149231 0.177177,-0.290164 0.26727,-0.434313 0.175186,-0.280299 0.359352,-0.554919 0.534539,-0.835217 0.151249,-0.241999 0.127944,-0.3548759 0.367495,-0.5345393 z"
       id="path1018" />
    <path
       style="fill:none;fill-opacity:1;stroke:#53676c;stroke-width:0.264999;stroke-linejoin:round;stroke-opacity:1"
       d="m 25.758101,13.26325 c -0.211589,-0.144771 -0.43457,-0.274156 -0.634766,-0.434313 -0.08017,-0.06414 -0.121578,-0.168132 -0.200452,-0.233861 -0.145483,-0.121236 -0.322142,-0.122599 -0.50113,-0.100226 -0.01105,0.0014 0.0079,0.02553 0,0.03341 -0.261315,0.261315 -0.01126,-0.108939 -0.26727,0.300678 -0.162519,0.260032 -0.08867,0.498626 -0.133635,0.7684 -0.03899,0.23392 -0.764219,1.678787 -0.167043,1.770661 0.100718,0.01549 1.306005,0.05296 1.403165,-0.03341 0.317717,-0.282415 0.324755,-0.485173 0.434313,-0.868626 0.06128,-0.214489 0.348065,-0.907486 0.26727,-1.069078 -0.03591,-0.07183 -0.131592,-0.09232 -0.200452,-0.133635 z"
       id="path1020" />
    <path
       style="fill:none;fill-opacity:1;stroke:#53676c;stroke-width:0.264999;stroke-linejoin:round;stroke-opacity:1"
       d="m 23.820396,17.005024 c 0.06682,-0.311815 0.121035,-0.626598 0.200452,-0.935444 0.114909,-0.446866 0.257115,-0.203837 0.567948,-0.100226 0.02113,0.007 0.0469,-0.01 0.06682,0 0.11994,0.05997 0.192885,0.189102 0.267269,0.300678 0.104086,0.156128 0.06524,0.442208 0.03341,0.601357 -0.04897,0.244842 -0.662067,0.267269 -0.868626,0.267269 -0.102549,0 -0.265943,0.0053 -0.26727,0 -0.0108,-0.04322 0,-0.08909 0,-0.133634 z"
       id="path1022" />
    <path
       style="fill:none;fill-opacity:1;stroke:#53676c;stroke-width:0.264999;stroke-linejoin:round;stroke-opacity:1"
       d="m 25.457422,16.236624 c 0.561463,-1.363554 0.106943,-0.892035 0.902035,-1.403165 0.01325,-0.0085 0.01778,-0.03146 0.03341,-0.03341 0.239102,-0.02989 0.497799,-0.0021 0.73499,-0.06682 0.334788,-0.09131 0.661487,-0.505305 0.968854,-0.601357 0.141811,-0.04432 0.290171,-0.06419 0.434311,-0.100226 0.04285,-0.01071 0.370874,-0.113097 0.400904,-0.100226 0.148468,0.06363 0.105484,0.626492 0.100227,0.7684 -0.03872,1.045376 -1.030121,1.394698 -1.670434,2.004521 -0.360071,0.342925 -0.358399,0.574444 -0.902036,0.668174 -0.229859,0.03963 -0.953674,0.01314 -1.00226,-0.100226 -0.0687,-0.160311 -0.137923,-0.64673 -0.100226,-0.835217 0.01465,-0.07325 0.06682,-0.133635 0.100226,-0.200452 z"
       id="path1024" />
    <path
       style="fill:none;fill-opacity:1;stroke:#53676c;stroke-width:0.264999;stroke-linejoin:round;stroke-opacity:1"
       d="m 30.10123,13.53052 c -5.29e-4,-0.06162 -1.25708,-0.05104 -1.269529,-0.200453 -0.0097,-0.115863 0.07586,-0.220401 0.100224,-0.334086 0.02612,-0.121832 -0.09513,-0.244052 -0.03341,-0.367496 0.05923,-0.118468 0.410763,-0.124122 0.501132,-0.133635 0.718539,-0.07564 0.793763,-0.03218 1.00226,0.801809 0.01307,0.05229 -0.143439,0.491327 -0.23386,0.400904 -0.0424,-0.04241 -0.04,-0.113404 -0.06682,-0.167043 z"
       id="path1026" />
    <path
       style="fill:none;fill-opacity:1;stroke:#53676c;stroke-width:0.264999;stroke-linejoin:round;stroke-opacity:1"
       d="m 31.270535,14.766641 c -0.532945,0.655933 -0.254505,0.3719 -0.734991,0.801809 -0.111655,0.0999 -0.214914,0.209879 -0.334087,0.300678 -0.115496,0.088 -0.261096,0.13506 -0.367496,0.233861 -0.192519,0.178766 -0.02111,0.229253 -0.300678,0.334087 -0.04299,0.01612 -0.08861,0.04241 -0.133635,0.03341 -0.251111,-0.05022 -0.203647,-0.122012 -0.267269,-0.334087 -0.09057,-0.301902 0.171124,-0.609269 0.23386,-0.902035 0.06712,-0.313206 -0.02761,-0.262059 0.167044,-0.567948 0.02156,-0.03388 0.0681,-0.04273 0.100225,-0.06682 0.277796,-0.208348 0.381426,-0.193959 0.701582,-0.300678 0.170053,-0.05668 0.380212,-0.141264 0.53454,-0.233861 0.271137,-0.162683 0.354796,0.06903 0.434314,0.334087 0.0495,0.165002 0.0431,0.214481 -0.03341,0.367495 z"
       id="path1028" />
    <path
       style="fill:none;fill-opacity:1;stroke:#53676c;stroke-width:0.264999;stroke-linejoin:round;stroke-opacity:1"
       d="m 28.430796,17.138658 c -0.223059,-0.08431 -0.650867,-0.128368 -0.835218,0.100226 -0.240548,0.29828 -0.441568,0.626438 -0.668173,0.935444 -0.02545,0.03471 -0.161028,0.112259 -0.133636,0.167043 0.141846,0.283689 0.430512,0.04012 0.634767,-0.03341 0.351282,-0.126462 0.725911,-0.187015 1.069078,-0.334086 0.03448,-0.01478 0.114747,-0.629687 0.06682,-0.701583 -0.03494,-0.05242 -0.08909,-0.08909 -0.133634,-0.133635 z"
       id="path1030" />
    <path
       style="fill:none;fill-opacity:1;stroke:#53676c;stroke-width:0.264999;stroke-linejoin:round;stroke-opacity:1"
       d="m 26.559909,18.87591 c -0.191488,0.376063 -0.417536,0.734895 -0.668174,1.069078 -0.02026,0.02701 -0.333808,0.60597 -0.50113,0.701583 -0.128568,0.07347 -0.190798,0.07984 -0.334087,0.06682 -0.07842,-0.0071 -0.168341,0.01027 -0.233861,-0.03341 -0.343281,-0.228854 -0.399162,-0.812414 -0.50113,-1.169304 -0.127342,-0.445694 -0.365455,-0.955208 -0.06682,-1.403165 0.02026,-0.03039 0.224096,-0.127531 0.233861,-0.133634 0.04007,-0.02504 0.05797,-0.0791 0.100226,-0.100226 0.02988,-0.01494 0.06682,0 0.100226,0 0.133635,0 0.26727,0 0.400905,0 0.15563,0 0.42454,-0.0478 0.567947,0 0.05436,0.01812 0.203466,0.262684 0.233861,0.300678 0.01555,0.01944 0.04921,0.0158 0.06682,0.03341 0.01761,0.01761 0.0158,0.04921 0.03341,0.06682 0.213236,0.213235 0.452475,0.312674 0.567948,0.601356 z"
       id="path1034" />
    <path
       style="fill:none;fill-opacity:1;stroke:#53676c;stroke-width:0.264999;stroke-linejoin:round;stroke-opacity:1"
       d="m 24.254709,21.414971 c 0.04455,-0.17818 0.103441,-0.353375 0.133635,-0.534539 0.0041,-0.02456 -0.02021,-0.0457 -0.03341,-0.06682 -0.131358,-0.210173 -0.214265,-0.317007 -0.434313,-0.133635 -0.164117,0.136765 -0.07175,0.04385 -0.100226,0.200453 -0.01643,0.09035 -0.04881,0.177221 -0.06682,0.267269 -0.02342,0.117119 0.02891,0.251857 0,0.367496 -0.02724,0.108943 -0.07767,0.221301 -0.100226,0.334087 -0.0611,0.30551 0.28423,0.228207 0.467722,0.167043 0.01056,-0.0035 -0.0079,-0.02554 0,-0.03341 0.02839,-0.02839 0.07613,-0.0347 0.100226,-0.06682 0.05118,-0.06825 0.03341,-0.408597 0.03341,-0.50113 z"
       id="path1036" />
    <path
       style="fill:none;fill-opacity:1;stroke:#53676c;stroke-width:0.264999;stroke-linejoin:round;stroke-opacity:1"
       d="m 31.237126,12.828937 c -0.100227,-0.01114 -0.209296,0.0092 -0.300678,-0.03341 -0.08881,-0.04144 -0.462116,-0.51884 -0.467722,-0.534539 -0.01873,-0.05244 0.05674,-0.09885 0.100227,-0.133634 0.01958,-0.01567 0.227269,-0.04282 0.267268,-0.06682 0.122151,-0.07329 0.291018,-0.300678 0.434314,-0.300678 0.01114,0 0,0.02227 0,0.03341 0,0.122498 0,0.244997 0,0.367495 0,0.115262 0.0095,0.360498 -0.03341,0.467722 -0.01169,0.02925 -0.06682,0.03532 -0.06682,0.06682 0,0.0498 0.113059,0.115139 0.06682,0.133635 -0.07527,0.03011 -0.155908,-0.04454 -0.23386,-0.06682"
       id="path1038" />
    <path
       style="fill:none;fill-opacity:1;stroke:#53676c;stroke-width:0.264999;stroke-linejoin:round;stroke-opacity:1"
       d="M 24.221301,9.2542073 C 23.925263,9.2308049 23.898163,9.53645 23.72017,9.6551116 23.607254,9.7303893 22.948045,9.865458 22.818136,9.822155 22.773506,9.8072775 22.560184,9.1803891 22.517457,9.1205726 22.439519,9.011459 22.112355,8.8716688 21.982918,8.8198943 c -0.0327,-0.013078 -0.07532,-0.00851 -0.100226,-0.033409 -0.01575,-0.015748 0,-0.044545 0,-0.066817 0,-0.211953 0.03341,-0.4228121 0.03341,-0.6347651 0,-0.1074435 -0.168774,0.091397 0,-0.1336349 0.02988,-0.039842 0.09379,-0.036936 0.133635,-0.066817 0.251027,-0.1882703 0.579605,-0.345744 0.801808,-0.5679477 0.08705,-0.087049 0.248847,-0.3490729 0.334087,-0.434313 0.404063,-0.4040626 0.93063,-0.6698228 1.436574,-0.9354433 0.0081,-0.00426 0,0.1722567 0,0.334087 0,0.044545 0,0.08909 0,0.1336347 -0.01114,0.066817 -0.03033,0.132783 -0.03341,0.2004523 0,1.4724845 0.04322,0.1318085 -0.03341,0.6681737 -0.04338,0.3036784 0.211124,0.5210826 0.267269,0.8018086 0.02022,0.1010849 -0.0027,0.2188972 -0.03341,0.3006781 -0.06542,0.1744443 -0.06163,0.4197196 -0.23386,0.534539 -0.0093,0.00618 -0.02227,0 -0.03341,0 -0.02227,0.011136 -0.0469,0.018468 -0.06682,0.033409 -0.07237,0.054277 -0.08614,0.093182 -0.167043,0.1336349"
       id="path1040" />
    <path
       style="fill:none;fill-opacity:1;stroke:#53676c;stroke-width:0.264999;stroke-linejoin:round;stroke-opacity:1"
       d="m 26.092187,7.2830946 c -0.309696,0.0909 -0.801808,0.4425143 -0.801808,-0.1670434 0,-0.2806901 0.01614,-0.9204372 -0.06682,-1.1693043 -0.04719,-0.1415635 0.234046,-0.2840659 0.26727,-0.3006781 0.118178,-0.059089 1.212408,-0.1621964 1.336347,-0.1002263 0.08765,0.043823 0.188799,0.4966669 0.200454,0.5345391 0.07804,0.2536213 0.152561,0.8744188 -0.167045,1.0022607 -0.05936,0.023746 -0.168635,-0.00932 -0.23386,0 -0.276909,0.039558 -0.458493,0.1002263 -0.7684,0.1002263"
       id="path1042" />
    <path
       style="fill:none;fill-opacity:1;stroke:#53676c;stroke-width:0.264999;stroke-linejoin:round;stroke-opacity:1"
       d="m 27.061041,5.0447122 c -0.217832,-0.054205 -1.252958,0.2087393 -1.403167,0.1336349 -0.01,-0.00498 0.0014,-0.02236 0,-0.033409 -0.0098,-0.078137 -0.03341,-0.155116 -0.03341,-0.233861 0,-0.069078 0.296841,-0.5230275 0.334087,-0.634765 0.04455,-0.133635 0.01631,-0.1833523 0.133634,-0.3006784 0.09612,-0.09612 0.229659,-0.1468374 0.334087,-0.2338607 0.0242,-0.020164 0.04454,-0.044545 0.06682,-0.066817 0.1225,-0.1002263 0.240877,-0.205713 0.367496,-0.3006783 0.19027,-0.1427023 0.42445,-0.24008 0.601356,-0.4009044 0.334213,-0.3038292 0.486756,-0.638572 0.968853,-0.7349911 0.04368,-0.00874 0.098,-0.026727 0.133634,0 0.12161,0.091208 0.199583,0.5779332 0.133635,0.7015825 -0.196418,0.3682849 -0.473326,0.7405946 -0.7684,1.0356693 -0.218797,0.2187964 -0.318921,0.4920467 -0.501129,0.7349914 -0.05073,0.067641 -0.311779,0.2895121 -0.367495,0.3340867 z"
       id="path1044" />
    <path
       style="fill:none;fill-opacity:1;stroke:#53676c;stroke-width:0.264999;stroke-linejoin:round;stroke-opacity:1"
       d="m 28.798292,4.9444862 c -0.178181,0.044545 -0.35116,0.1438227 -0.53454,0.1336347 -0.101053,-0.00561 -0.06123,-0.1389698 -0.06682,-0.2004521 -0.02993,-0.3292295 -0.03939,-0.7466586 0.167045,-1.0356693 0.02746,-0.038447 0.07402,-0.060914 0.100226,-0.1002261 0.01953,-0.029301 0.01294,-0.07157 0.03341,-0.1002262 0.198639,-0.2780972 0.42273,-0.4159684 0.734989,-0.5011304 0.122499,-0.033409 0.247039,-0.1403781 0.367496,-0.100226 0.0557,0.018566 0.234394,0.3987773 0.233862,0.4009043 -0.0076,0.030558 -0.04454,0.044545 -0.06682,0.066817 -0.07067,0.070674 -0.269213,0.1551993 -0.300677,0.2338609 -0.09414,0.2353392 -0.129538,0.5353257 -0.300678,0.7349911 -0.02614,0.030486 -0.06887,0.041735 -0.100227,0.066817 -0.135488,0.1083895 -0.204515,0.2440197 -0.267269,0.4009044 z"
       id="path1046" />
    <path
       style="fill:none;fill-opacity:1;stroke:#53676c;stroke-width:0.247986;stroke-linejoin:round;stroke-opacity:1"
       d="M 30.650618,2.781337 C 30.128577,2.579126 29.605028,2.3820923 29.084494,2.174704 29.007805,2.1441523 28.499549,1.9589206 28.388439,1.8039839 c -0.01957,-0.027291 0.05862,-0.020508 0.08701,-0.033702 0.225154,-0.1046558 -0.05526,0.024443 0.08701,-0.067403 0.170069,-0.1097935 0.348026,-0.2022109 0.52204,-0.3033164 0.112895,-0.065595 0.949675,-0.61523099 1.01508,-0.53922929 0.132427,0.15388509 0.265959,0.36263929 0.435034,0.50552739 0.171867,0.1452481 0.87979,0.4603376 0.812065,0.7751422 -0.01578,0.073356 -0.07361,0.1192325 -0.11601,0.1685091 -0.09514,0.110561 -0.12498,0.1400186 -0.232018,0.202211 -0.03867,0.022467 -0.08004,0.039536 -0.11601,0.067403 -0.05563,0.043093 -0.04736,0.1685092 -0.11601,0.1685092"
       id="path1048" />
    <path
       style="fill:none;fill-opacity:1;stroke:#374548;stroke-width:0.264999;stroke-linejoin:round;stroke-opacity:1"
       d="M 23.051996,10.891233 C 22.787612,10.687364 22.760028,10.46199 22.651092,10.189651 22.623166,10.119835 22.236539,9.98902 22.18337,9.9557897 22.14932,9.9345097 22.1474,9.8812687 22.11655,9.8555637 22.04003,9.7917977 21.93698,9.7691517 21.849281,9.721929 21.748331,9.667571 21.662688,9.5434771 21.548602,9.5548856 c -0.01978,0.00198 -0.03303,0.2653784 -0.06682,0.4343128 -0.03055,0.1527386 -0.0575,0.074989 -0.100226,0.2672696 -0.07771,0.349682 0.06813,0.898869 0.233861,1.202713 0.102537,0.187985 0.371391,0.05944 0.534539,0.100226 0.03895,0.0097 0.06431,0.04886 0.100226,0.06682 0.0498,0.0249 0.111362,0 0.167043,0 0.211721,0 0.184269,-0.04202 0.367496,-0.133634 0.137278,-0.06864 0.26676,-0.03188 0.334087,-0.233861 0.02582,-0.07746 -0.05299,-0.29837 -0.06682,-0.367496 z"
       id="path1054" />
    <path
       style="fill:none;fill-opacity:1;stroke:#374548;stroke-width:0.264999;stroke-linejoin:round;stroke-opacity:1"
       d="m 22.95177,12.127355 c -0.311814,0.01114 -0.623592,0.02335 -0.935443,0.03341 -0.03801,0.0012 -0.197859,-0.012 -0.233861,0 -0.01056,0.0035 0.0079,0.02554 0,0.03341 -0.01761,0.01761 -0.04921,0.0158 -0.06682,0.03341 -0.147949,0.147948 0.148734,0.395533 0.267269,0.567947 0.03481,0.05063 0.228837,0.197941 0.233861,0.200453 0.08866,0.04433 0.263249,-0.08418 0.300678,-0.100227 0.05219,-0.02237 0.114851,-0.01104 0.167044,-0.03341 0.156394,-0.06703 0.411779,-0.199669 0.467721,-0.367496 0.04413,-0.132376 -0.128661,-0.247844 -0.200452,-0.367495 z"
       id="path1056" />
    <path
       style="fill:none;fill-opacity:1;stroke:#374548;stroke-width:0.264999;stroke-linejoin:round;stroke-opacity:1"
       d="m 22.784727,13.898015 c -0.300678,-0.211588 -0.601357,-0.423177 -0.902035,-0.634765 -0.01114,-0.01114 -0.01766,-0.03341 -0.03341,-0.03341 -0.290871,0 -0.04328,0.0099 -0.100226,0.06682 -0.04069,0.04069 -0.07464,0.01565 -0.100227,0.06682 -0.09439,0.188789 -0.06682,0.397555 -0.06682,0.601357 0,0.696 -0.192686,0.617594 0.167044,1.369756 0.03076,0.06433 0.0743,0.12749 0.133634,0.167044 0.150571,0.10038 0.429094,0.143031 0.601357,0.200452 0.05689,0.01896 0.113404,0.04 0.167043,0.06682 0.01409,0.007 0.01766,0.03341 0.03341,0.03341 0.103886,0 0.270022,-0.141892 0.300678,-0.233861 0.04624,-0.138724 -0.0237,-0.958765 -0.06682,-1.102487 -0.08275,-0.275819 -0.133635,-0.302232 -0.133635,-0.567948 z"
       id="path1058" />
    <path
       style="fill:none;fill-opacity:1;stroke:#374548;stroke-width:0.264999;stroke-linejoin:round;stroke-opacity:1"
       d="m 22.884953,16.403667 c -0.215298,-0.212859 -0.430019,-0.387394 -0.734991,-0.434313 -0.06604,-0.01016 -0.134544,0.01099 -0.200452,0 -0.01099,-0.0018 0.01056,-0.02989 0,-0.03341 -0.03169,-0.01056 -0.06781,0.0081 -0.100226,0 -0.01528,-0.0038 -0.01766,-0.03341 -0.03341,-0.03341 -0.04888,0 -0.266995,0.13336 -0.300678,0.167043 -0.17441,0.17441 0.322004,0.725542 0.467721,0.7684 0.09638,0.02835 0.714264,0.143999 0.868626,0.06682 0.02227,-0.01114 0.01114,-0.05568 0.03341,-0.06682 0.05055,-0.02527 0.265718,-0.07147 0.233861,-0.167043 -0.03783,-0.113502 -0.15937,-0.192779 -0.233861,-0.26727 z"
       id="path1060" />
    <path
       style="fill:none;fill-opacity:1;stroke:#374548;stroke-width:0.264999;stroke-linejoin:round;stroke-opacity:1"
       d="m 22.95177,18.10751 c -0.100226,-0.155907 -0.182024,-0.325336 -0.300678,-0.467721 -0.110458,-0.13255 -0.195845,-0.129342 -0.334087,-0.167044 -0.240044,-0.06547 -0.3571,-0.138832 -0.567947,-0.03341 -0.02227,0.01114 -0.05446,0.01179 -0.06682,0.03341 -0.05091,0.0891 -0.121114,0.32163 -0.133635,0.434313 -0.01367,0.123003 -0.04081,0.720178 0,0.801809 0.163455,0.326908 0.07841,0.13431 0.233861,0.367495 0.02763,0.04144 0.02538,0.10601 0.06682,0.133635 0.03995,0.02663 0.203983,0.07913 0.267269,0.100226 0.530009,0.17667 0.627201,-0.11548 0.801809,-0.534539 0.152808,-0.366739 0.191715,-0.351561 0.03341,-0.668174 z"
       id="path1062" />
    <path
       style="fill:none;fill-opacity:1;stroke:#374548;stroke-width:0.264999;stroke-linejoin:round;stroke-opacity:1"
       d="m 22.784727,20.345893 c -0.249505,-0.333542 -0.581805,-0.472848 -0.902035,-0.701583 -0.04053,-0.02895 -0.09842,-0.102033 -0.133634,-0.06682 -0.02363,0.02362 0.0047,0.06715 0,0.100226 -0.008,0.05621 -0.02325,0.111175 -0.03341,0.167043 -0.01232,0.06776 -0.05845,0.246451 -0.03341,0.334087 0.09354,0.327397 0.04207,0.09156 0.200452,0.467722 0.05058,0.120131 0.08229,0.247688 0.133635,0.367495 0.04598,0.107278 0.146718,0.234296 0.200452,0.334087 0.140153,0.260284 0.275422,0.530063 0.434313,0.7684 0.120147,0.180221 0.389719,0.06638 0.367496,-0.133635 -0.02472,-0.222452 -0.13582,-0.416198 -0.167044,-0.634765 -0.01857,-0.129999 0.02571,-0.272339 0,-0.400904 -0.0031,-0.01544 -0.03032,-0.01797 -0.03341,-0.03341 -0.0368,-0.183989 -0.03341,-0.375519 -0.03341,-0.567947 z"
       id="path1064" />
    <path
       style="fill:#93a7ac;fill-opacity:1;stroke:none;stroke-width:0.264999;stroke-linejoin:round;stroke-opacity:1"
       d="m 35.695125,22.513207 0.897694,-0.141741 0.472472,-0.519718 0.755951,-0.496093 0.188987,-0.732329 0.661458,-0.448847 0.661459,-0.496094 0.212614,-0.590588 0.236233,-0.401599 0.448847,-0.283482 0.590587,-0.236236 0.73233,-0.47247 0.448847,-0.968564 0.118118,-0.496093 c 0,0 0.354353,-0.165365 0.496093,-0.212612 0.14174,-0.04725 0.637834,-0.283482 0.637834,-0.283482 l 0.377976,-0.307105 0.307106,-0.354353 0.51027,-0.255134 c 0.247,-4.075572 0,-8.5430562 0,-12.7000003 l -0.533882,-0.5102679 -0.566963,-0.1417411 -7.843007,7.9374998 -0.496094,2.3151045 0.330729,8.88244 z"
       id="path1101"
       sodipodi:nodetypes="ccccccccccccccsccccccccccc" />
    <path
       style="fill:#6f8a91;fill-opacity:1;stroke:none;stroke-width:0.264999;stroke-linejoin:round;stroke-opacity:1"
       d="m 42.853049,0.49609371 -0.54334,0.0236235 -0.590588,0.42522321 -1.015809,0.92131698 0.02363,0.5905878 -0.519716,0.4724704 -0.496094,-0.023625 -0.708707,0.5905878 0.07087,0.7087053 -0.566965,0.3307291 -0.377976,0.023625 -0.874069,0.8031993 -0.07087,0.5905878 -0.307104,0.2598587 -0.803198,0.3071056 -0.803201,0.7559524 -0.614212,0.779576 -0.236233,0.7087052 0.259858,0.5669642 0.850445,0.732329 0.732329,-0.094494 0.779571,-0.5197173 0.637834,-1.0158111 0.921319,-0.4488465 0.732327,-1.1811757 0.519718,-0.4252232 0.472469,-0.2362351 0.472472,-0.543341 0.09449,-0.7559523 0.590587,-0.3307293 0.708708,-0.3071056 0.14174,-0.3779759 0.07087,-0.4252233 0.54334,-0.2598587 0.614212,-0.2598586 0.377976,-0.5433408 0.07087,-0.7087053 z"
       id="path1097"
       sodipodi:nodetypes="cccccccccccccccccccccccccccccccccccccc" />
    <g
       id="g1303"
       style="fill:#93a7ac"
       transform="translate(0.04677217,-0.16370259)">
      <path
         style="fill:#93a7ac;fill-opacity:1;stroke:none;stroke-width:0.264999;stroke-linejoin:round;stroke-opacity:1"
         d="M 43.46726,1.5119047 42.900298,0.96856398 41.90811,1.2284226 41.459263,2.031622 l 0.188987,0.4488467 0.448847,0.023624 1.015812,-0.2834821 z"
         id="path1283" />
      <path
         style="fill:#93a7ac;fill-opacity:1;stroke:none;stroke-width:0.264999;stroke-linejoin:round;stroke-opacity:1"
         d="M 43.254649,2.7403274 42.593191,2.6222098 41.695499,2.7875743 41.270274,3.4490326 41.577381,3.6143972 Z"
         id="path1285" />
      <path
         style="fill:#93a7ac;fill-opacity:1;stroke:none;stroke-width:0.264999;stroke-linejoin:round;stroke-opacity:1"
         d="m 41.837239,4.063244 -0.803198,-0.5197173 -0.874072,-0.4724702 -0.425223,0.07087 -0.425222,0.3543528 0.09449,0.5669642 1.015812,0.5433407 z"
         id="path1287" />
      <path
         style="fill:#93a7ac;fill-opacity:1;stroke:none;stroke-width:0.264999;stroke-linejoin:round;stroke-opacity:1"
         d="M 40.63244,4.8664434 40.679687,5.5515253 40.112722,6.0003718 39.451264,6.2602305 39.144159,6.047619 39.852864,5.1735489 Z"
         id="path1289" />
      <path
         style="fill:#93a7ac;fill-opacity:1;stroke:none;stroke-width:0.264999;stroke-linejoin:round;stroke-opacity:1"
         d="M 39.262277,4.3939732 39.923735,4.8428198 39.427642,5.2207961 38.199218,6.6145832 37.419642,6.2602305 V 5.5042781 L 38.222843,4.8428198 38.95517,4.6065847 Z"
         id="path1291" />
      <path
         style="fill:#93a7ac;fill-opacity:1;stroke:none;stroke-width:0.264999;stroke-linejoin:round;stroke-opacity:1"
         d="M 37.136159,6.4019718 38.671687,7.4177826 38.506323,7.8666294 37.726749,8.2209822 36.167597,6.8980655 Z"
         id="path1293" />
      <path
         style="fill:#93a7ac;fill-opacity:1;stroke:none;stroke-width:0.264999;stroke-linejoin:round;stroke-opacity:1"
         d="M 36.002232,7.110677 36.545572,7.8666294 34.98642,9.2604166 34.679315,8.6225818 35.364396,7.6540179 Z"
         id="path1295" />
      <path
         style="fill:#93a7ac;fill-opacity:1;stroke:none;stroke-width:0.264999;stroke-linejoin:round;stroke-opacity:1"
         d="M 36.80543,8.031994 37.301524,8.4099701 37.065291,9.0478051 36.451079,9.6620162 35.954985,9.8037575 35.482514,9.331287 Z"
         id="path1297" />
      <path
         style="fill:#93a7ac;fill-opacity:1;stroke:none;stroke-width:0.264999;stroke-linejoin:round;stroke-opacity:1"
         d="m 38.860677,7.1579239 -0.354354,-0.2126115 0.4016,-0.5905878 0.283483,0.2126117 z"
         id="path1299" />
      <path
         style="fill:#93a7ac;fill-opacity:1;stroke:none;stroke-width:0.264999;stroke-linejoin:round;stroke-opacity:1"
         d="M 40.608816,2.9529389 41.081287,3.3072916 41.50651,2.6694569 41.152156,2.3387276 Z"
         id="path1301" />
    </g>
    <g
       id="g1281"
       style="fill:#374548"
       transform="translate(0.04677217,0.1403165)">
      <path
         style="fill:#374548;fill-opacity:1;stroke:none;stroke-width:0.264999;stroke-linejoin:round;stroke-opacity:1"
         d="M 43.46726,1.5119047 42.900298,0.96856398 41.90811,1.2284226 41.459263,2.031622 l 0.188987,0.4488467 0.448847,0.023624 1.015812,-0.2834821 z"
         id="path1261" />
      <path
         style="fill:#374548;fill-opacity:1;stroke:none;stroke-width:0.264999;stroke-linejoin:round;stroke-opacity:1"
         d="M 43.254649,2.7403274 42.593191,2.6222098 41.695499,2.7875743 41.270274,3.4490326 41.577381,3.6143972 Z"
         id="path1263" />
      <path
         style="fill:#374548;fill-opacity:1;stroke:none;stroke-width:0.264999;stroke-linejoin:round;stroke-opacity:1"
         d="m 41.837239,4.063244 -0.803198,-0.5197173 -0.874072,-0.4724702 -0.425223,0.07087 -0.425222,0.3543528 0.09449,0.5669642 1.015812,0.5433407 z"
         id="path1265" />
      <path
         style="fill:#374548;fill-opacity:1;stroke:none;stroke-width:0.264999;stroke-linejoin:round;stroke-opacity:1"
         d="M 40.63244,4.8664434 40.679687,5.5515253 40.112722,6.0003718 39.451264,6.2602305 39.144159,6.047619 39.852864,5.1735489 Z"
         id="path1267" />
      <path
         style="fill:#374548;fill-opacity:1;stroke:none;stroke-width:0.264999;stroke-linejoin:round;stroke-opacity:1"
         d="M 39.262277,4.3939732 39.923735,4.8428198 39.427642,5.2207961 38.199218,6.6145832 37.419642,6.2602305 V 5.5042781 L 38.222843,4.8428198 38.95517,4.6065847 Z"
         id="path1269" />
      <path
         style="fill:#374548;fill-opacity:1;stroke:none;stroke-width:0.264999;stroke-linejoin:round;stroke-opacity:1"
         d="M 37.136159,6.4019718 38.671687,7.4177826 38.506323,7.8666294 37.726749,8.2209822 36.167597,6.8980655 Z"
         id="path1271" />
      <path
         style="fill:#374548;fill-opacity:1;stroke:none;stroke-width:0.264999;stroke-linejoin:round;stroke-opacity:1"
         d="M 36.002232,7.110677 36.545572,7.8666294 34.98642,9.2604166 34.679315,8.6225818 35.364396,7.6540179 Z"
         id="path1273" />
      <path
         style="fill:#374548;fill-opacity:1;stroke:none;stroke-width:0.264999;stroke-linejoin:round;stroke-opacity:1"
         d="M 36.80543,8.031994 37.301524,8.4099701 37.065291,9.0478051 36.451079,9.6620162 35.954985,9.8037575 35.482514,9.331287 Z"
         id="path1275" />
      <path
         style="fill:#374548;fill-opacity:1;stroke:none;stroke-width:0.264999;stroke-linejoin:round;stroke-opacity:1"
         d="m 38.860677,7.1579239 -0.354354,-0.2126115 0.4016,-0.5905878 0.283483,0.2126117 z"
         id="path1277" />
      <path
         style="fill:#374548;fill-opacity:1;stroke:none;stroke-width:0.264999;stroke-linejoin:round;stroke-opacity:1"
         d="M 40.608816,2.9529389 41.081287,3.3072916 41.50651,2.6694569 41.152156,2.3387276 Z"
         id="path1279" />
    </g>
    <path
       style="fill:#53676c;fill-opacity:1;stroke:none;stroke-width:0.264999;stroke-linejoin:round;stroke-opacity:1"
       d="m 34.466704,8.7170759 -0.25986,0.8976934 -0.212612,0.4724697 0.02363,0.944941 0.212611,0.94494 0.165365,1.063058 -0.18899,0.496094 -0.212611,0.543341 0.0945,0.566964 0.188987,0.4016 -0.07087,0.496094 -0.165364,0.425223 0.141742,0.826823 -0.09449,1.228422 -0.07087,0.708706 0.188986,0.708705 -0.04725,0.283482 -0.283483,0.850447 0.07087,0.496093 0.944941,0.685082 0.283483,0.425223 0.354351,0.448847 0.25986,-0.02362 0.165365,-0.779576 -0.118118,-1.630023 -0.259858,-0.803199 0.04725,-0.94494 0.283482,-0.685082 0.02363,-1.559152 -0.354351,-0.755953 0.212611,-0.685081 0.188986,-0.425223 -0.212619,-1.110304 V 12.78032 l 0.141743,-0.47247 0.14174,-1.015811 -0.14174,-0.330729 -0.212614,-0.826823 -0.236233,-0.2362357 -0.708705,-0.7323288 z"
       id="path1099" />
    <g
       id="g1185"
       transform="translate(0,-0.04677217)">
      <path
         style="fill:#53676c;fill-opacity:1;stroke:none;stroke-width:0.264999;stroke-linejoin:round;stroke-opacity:1"
         d="M 43.46726,1.5119047 42.900298,0.96856398 41.90811,1.2284226 41.459263,2.031622 l 0.188987,0.4488467 0.448847,0.023624 1.015812,-0.2834821 z"
         id="path1105" />
      <path
         style="fill:#53676c;fill-opacity:1;stroke:none;stroke-width:0.264999;stroke-linejoin:round;stroke-opacity:1"
         d="M 43.254649,2.7403274 42.593191,2.6222098 41.695499,2.7875743 41.270274,3.4490326 41.577381,3.6143972 Z"
         id="path1107" />
      <path
         style="fill:#53676c;fill-opacity:1;stroke:none;stroke-width:0.264999;stroke-linejoin:round;stroke-opacity:1"
         d="m 41.837239,4.063244 -0.803198,-0.5197173 -0.874072,-0.4724702 -0.425223,0.07087 -0.425222,0.3543528 0.09449,0.5669642 1.015812,0.5433407 z"
         id="path1109" />
      <path
         style="fill:#53676c;fill-opacity:1;stroke:none;stroke-width:0.264999;stroke-linejoin:round;stroke-opacity:1"
         d="M 40.63244,4.8664434 40.679687,5.5515253 40.112722,6.0003718 39.451264,6.2602305 39.144159,6.047619 39.852864,5.1735489 Z"
         id="path1111" />
      <path
         style="fill:#53676c;fill-opacity:1;stroke:none;stroke-width:0.264999;stroke-linejoin:round;stroke-opacity:1"
         d="M 39.262277,4.3939732 39.923735,4.8428198 39.427642,5.2207961 38.199218,6.6145832 37.419642,6.2602305 V 5.5042781 L 38.222843,4.8428198 38.95517,4.6065847 Z"
         id="path1113" />
      <path
         style="fill:#53676c;fill-opacity:1;stroke:none;stroke-width:0.264999;stroke-linejoin:round;stroke-opacity:1"
         d="M 37.136159,6.4019718 38.671687,7.4177826 38.506323,7.8666294 37.726749,8.2209822 36.167597,6.8980655 Z"
         id="path1115" />
      <path
         style="fill:#53676c;fill-opacity:1;stroke:none;stroke-width:0.264999;stroke-linejoin:round;stroke-opacity:1"
         d="M 36.002232,7.110677 36.545572,7.8666294 34.98642,9.2604166 34.679315,8.6225818 35.364396,7.6540179 Z"
         id="path1117" />
      <path
         style="fill:#53676c;fill-opacity:1;stroke:none;stroke-width:0.264999;stroke-linejoin:round;stroke-opacity:1"
         d="M 36.80543,8.031994 37.301524,8.4099701 37.065291,9.0478051 36.451079,9.6620162 35.954985,9.8037575 35.482514,9.331287 Z"
         id="path1119" />
      <path
         style="fill:#53676c;fill-opacity:1;stroke:none;stroke-width:0.264999;stroke-linejoin:round;stroke-opacity:1"
         d="m 38.860677,7.1579239 -0.354354,-0.2126115 0.4016,-0.5905878 0.283483,0.2126117 z"
         id="path1121" />
      <path
         style="fill:#53676c;fill-opacity:1;stroke:none;stroke-width:0.264999;stroke-linejoin:round;stroke-opacity:1"
         d="M 40.608816,2.9529389 41.081287,3.3072916 41.50651,2.6694569 41.152156,2.3387276 Z"
         id="path1123" />
    </g>
    <g
       id="g1317"
       style="fill:#6f8a91"
       transform="translate(0.09354434,-0.16370259)">
      <path
         style="fill:#6f8a91;fill-opacity:1;stroke:none;stroke-width:0.264999;stroke-linejoin:round;stroke-opacity:1"
         d="m 34.537573,9.5675221 0.921319,0.8740699 0.425222,0.850447 -0.165364,0.54334 -1.511906,-1.370163 0.118118,-0.5669647 z"
         id="path1305" />
      <path
         style="fill:#6f8a91;fill-opacity:1;stroke:none;stroke-width:0.264999;stroke-linejoin:round;stroke-opacity:1"
         d="m 34.277715,11.008556 0.968565,0.897694 0.165365,1.34654 -0.779576,-0.236235 z"
         id="path1307" />
      <path
         style="fill:#6f8a91;fill-opacity:1;stroke:none;stroke-width:0.264999;stroke-linejoin:round;stroke-opacity:1"
         d="m 34.44308,14.835565 -0.283483,-0.708705 0.472472,-0.755953 1.063056,0.543341 v 0.519718 l -0.330729,0.803199 z"
         id="path1309" />
      <path
         style="fill:#6f8a91;fill-opacity:1;stroke:none;stroke-width:0.264999;stroke-linejoin:round;stroke-opacity:1"
         d="m 34.466704,15.284412 1.110306,0.826823 0.188986,1.252046 -0.165364,0.425223 -1.181174,-0.968564 -0.141743,-0.897693 z"
         id="path1311" />
      <path
         style="fill:#6f8a91;fill-opacity:1;stroke:none;stroke-width:0.264999;stroke-linejoin:round;stroke-opacity:1"
         d="m 34.419458,17.457775 1.063056,0.779576 -0.07087,0.897694 -1.157552,-0.8032 z"
         id="path1313" />
      <path
         style="fill:#6f8a91;fill-opacity:1;stroke:none;stroke-width:0.264999;stroke-linejoin:round;stroke-opacity:1"
         d="m 34.277715,18.946056 1.086681,0.8032 0.448847,1.535528 -0.118118,0.87407 -0.850445,-0.803199 -0.637836,-0.543341 0.212614,-0.921317 z"
         id="path1315" />
    </g>
    <g
       id="g1193">
      <path
         style="fill:#374548;fill-opacity:1;stroke:none;stroke-width:0.264999;stroke-linejoin:round;stroke-opacity:1"
         d="m 34.537573,9.5675221 0.921319,0.8740699 0.425222,0.850447 -0.165364,0.54334 -1.511906,-1.370163 0.118118,-0.5669647 z"
         id="path1125" />
      <path
         style="fill:#374548;fill-opacity:1;stroke:none;stroke-width:0.264999;stroke-linejoin:round;stroke-opacity:1"
         d="m 34.277715,11.008556 0.968565,0.897694 0.165365,1.34654 -0.779576,-0.236235 z"
         id="path1127" />
      <path
         style="fill:#374548;fill-opacity:1;stroke:none;stroke-width:0.264999;stroke-linejoin:round;stroke-opacity:1"
         d="m 34.44308,14.835565 -0.283483,-0.708705 0.472472,-0.755953 1.063056,0.543341 v 0.519718 l -0.330729,0.803199 z"
         id="path1129" />
      <path
         style="fill:#374548;fill-opacity:1;stroke:none;stroke-width:0.264999;stroke-linejoin:round;stroke-opacity:1"
         d="m 34.466704,15.284412 1.110306,0.826823 0.188986,1.252046 -0.165364,0.425223 -1.181174,-0.968564 -0.141743,-0.897693 z"
         id="path1131" />
      <path
         style="fill:#374548;fill-opacity:1;stroke:none;stroke-width:0.264999;stroke-linejoin:round;stroke-opacity:1"
         d="m 34.419458,17.457775 1.063056,0.779576 -0.07087,0.897694 -1.157552,-0.8032 z"
         id="path1133" />
      <path
         style="fill:#374548;fill-opacity:1;stroke:none;stroke-width:0.264999;stroke-linejoin:round;stroke-opacity:1"
         d="m 34.277715,18.946056 1.086681,0.8032 0.448847,1.535528 -0.118118,0.87407 -0.850445,-0.803199 -0.637836,-0.543341 0.212614,-0.921317 z"
         id="path1135" />
    </g>
    <g
       id="g1233"
       transform="translate(-0.07015825,0.24853369)"
       style="fill:#53676c">
      <path
         style="fill:#53676c;fill-opacity:1;stroke:none;stroke-width:0.264999;stroke-linejoin:round;stroke-opacity:1"
         d="m 36.214843,10.465216 1.960751,-1.8190106 1.53553,-0.6850819 1.063056,-0.2598587 -0.02363,0.8268229 -2.95294,2.1733633 -1.464657,0.165364 z"
         id="path1209" />
      <path
         style="fill:#53676c;fill-opacity:1;stroke:none;stroke-width:0.264999;stroke-linejoin:round;stroke-opacity:1"
         d="m 39.900111,7.2760416 1.110305,0.023625 2.763951,-2.5513392 0.377976,-1.3229166 0.14174,-0.9213171 -1.441032,0.9921876 -0.850447,1.2520461 -0.590587,0.1889879 -0.519719,1.2756697 -1.086681,0.5905879 z"
         id="path1211" />
      <path
         style="fill:#53676c;fill-opacity:1;stroke:none;stroke-width:0.264999;stroke-linejoin:round;stroke-opacity:1"
         d="M 41.199405,8.2446055 V 7.4650297 l 0.992188,-0.9921874 0.661458,0.8976934 0.803198,0.4960937 0.307105,0.9921875 -0.165365,0.779576 -1.346538,1.5827751 -0.921316,-0.259858 -0.519719,-1.9607521 z"
         id="path1213" />
      <path
         style="fill:#53676c;fill-opacity:1;stroke:none;stroke-width:0.264999;stroke-linejoin:round;stroke-opacity:1"
         d="m 42.734933,6.2838541 1.393786,-1.1339285 0.07087,1.8898809 -0.637834,0.2598587 z"
         id="path1215" />
      <path
         style="fill:#53676c;fill-opacity:1;stroke:none;stroke-width:0.264999;stroke-linejoin:round;stroke-opacity:1"
         d="m 40.726934,9.2840401 0.377975,1.4410339 -0.850444,1.015811 -2.291483,1.252046 -0.283482,-1.488281 0.803201,-0.87407 z"
         id="path1217" />
      <path
         style="fill:#53676c;fill-opacity:1;stroke:none;stroke-width:0.264999;stroke-linejoin:round;stroke-opacity:1"
         d="m 36.332961,11.481027 0.921316,0.07087 0.401601,1.606399 -0.283483,1.81901 -0.566965,0.614212 -0.614211,-0.09449 -0.118116,-0.779576 0.14174,-0.8032 -0.165364,-0.590587 z"
         id="path1219" />
      <path
         style="fill:#53676c;fill-opacity:1;stroke:none;stroke-width:0.264999;stroke-linejoin:round;stroke-opacity:1"
         d="m 38.0811,14.717448 0.09449,-1.27567 1.110305,-0.637835 0.850448,-0.330729 1.110305,-0.826823 1.133927,0.236235 0.07087,0.87407 -0.637837,0.732329 -2.834819,1.771764 z"
         id="path1221" />
      <path
         style="fill:#53676c;fill-opacity:1;stroke:none;stroke-width:0.264999;stroke-linejoin:round;stroke-opacity:1"
         d="m 42.971166,12.118862 0.04725,-0.826823 1.157552,-1.2992936 0.07087,1.9135046 -0.425222,0.803199 z"
         id="path1223" />
      <path
         style="fill:#53676c;fill-opacity:1;stroke:none;stroke-width:0.264999;stroke-linejoin:round;stroke-opacity:1"
         d="m 44.175968,13.370907 -1.063059,-0.54334 -0.425222,0.614211 -0.921319,0.921317 0.283482,1.34654 1.015812,-0.448846 0.803199,-0.708706 z"
         id="path1225" />
      <path
         style="fill:#53676c;fill-opacity:1;stroke:none;stroke-width:0.264999;stroke-linejoin:round;stroke-opacity:1"
         d="m 41.270274,14.52846 0.236236,2.078869 -0.04725,0.897693 -0.826823,0.330729 -0.897694,0.330729 -0.897694,-0.519717 0.566965,-0.897693 1.015812,-0.377976 0.165365,-1.063058 z"
         id="path1227" />
      <path
         style="fill:#53676c;fill-opacity:1;stroke:none;stroke-width:0.264999;stroke-linejoin:round;stroke-opacity:1"
         d="m 39.994604,15.260789 0.04725,0.850446 -1.13393,0.377976 -0.354351,0.968564 -1.13393,1.204799 -1.535528,0.590588 0.07087,-0.850446 0.496094,-0.637835 -0.07087,-1.27567 1.464656,-0.897693 1.582778,0.02362 z"
         id="path1229" />
      <path
         style="fill:#53676c;fill-opacity:1;stroke:none;stroke-width:0.264999;stroke-linejoin:round;stroke-opacity:1"
         d="m 36.451079,22.06436 0.779576,-0.685082 0.519716,-1.157552 1.063059,-0.779576 0.614212,-0.779576 -0.755955,-0.4016 -1.110302,1.015812 -1.086684,0.259858 -0.448847,0.259859 0.236236,1.417411 -0.118118,0.732328 z"
         id="path1231" />
    </g>
    <g
       id="g1259"
       style="fill:#b7c4c8"
       transform="translate(0.02338608,-0.25724692)">
      <path
         style="fill:#b7c4c8;fill-opacity:1;stroke:none;stroke-width:0.264999;stroke-linejoin:round;stroke-opacity:1"
         d="m 36.214843,10.465216 1.960751,-1.8190106 1.53553,-0.6850819 1.063056,-0.2598587 -0.02363,0.8268229 -2.95294,2.1733633 -1.464657,0.165364 z"
         id="path1235" />
      <path
         style="fill:#b7c4c8;fill-opacity:1;stroke:none;stroke-width:0.264999;stroke-linejoin:round;stroke-opacity:1"
         d="m 39.900111,7.2760416 1.110305,0.023625 2.763951,-2.5513392 0.377976,-1.3229166 0.14174,-0.9213171 -1.441032,0.9921876 -0.850447,1.2520461 -0.590587,0.1889879 -0.519719,1.2756697 -1.086681,0.5905879 z"
         id="path1237" />
      <path
         style="fill:#b7c4c8;fill-opacity:1;stroke:none;stroke-width:0.264999;stroke-linejoin:round;stroke-opacity:1"
         d="M 41.199405,8.2446055 V 7.4650297 l 0.992188,-0.9921874 0.661458,0.8976934 0.803198,0.4960937 0.307105,0.9921875 -0.165365,0.779576 -1.346538,1.5827751 -0.921316,-0.259858 -0.519719,-1.9607521 z"
         id="path1239" />
      <path
         style="fill:#b7c4c8;fill-opacity:1;stroke:none;stroke-width:0.264999;stroke-linejoin:round;stroke-opacity:1"
         d="m 42.734933,6.2838541 1.393786,-1.1339285 0.07087,1.8898809 -0.637834,0.2598587 z"
         id="path1241" />
      <path
         style="fill:#b7c4c8;fill-opacity:1;stroke:none;stroke-width:0.264999;stroke-linejoin:round;stroke-opacity:1"
         d="m 40.726934,9.2840401 0.377975,1.4410339 -0.850444,1.015811 -2.291483,1.252046 -0.283482,-1.488281 0.803201,-0.87407 z"
         id="path1243" />
      <path
         style="fill:#b7c4c8;fill-opacity:1;stroke:none;stroke-width:0.264999;stroke-linejoin:round;stroke-opacity:1"
         d="m 36.332961,11.481027 0.921316,0.07087 0.401601,1.606399 -0.283483,1.81901 -0.566965,0.614212 -0.614211,-0.09449 -0.118116,-0.779576 0.14174,-0.8032 -0.165364,-0.590587 z"
         id="path1245" />
      <path
         style="fill:#b7c4c8;fill-opacity:1;stroke:none;stroke-width:0.264999;stroke-linejoin:round;stroke-opacity:1"
         d="m 38.0811,14.717448 0.09449,-1.27567 1.110305,-0.637835 0.850448,-0.330729 1.110305,-0.826823 1.133927,0.236235 0.07087,0.87407 -0.637837,0.732329 -2.834819,1.771764 z"
         id="path1247" />
      <path
         style="fill:#b7c4c8;fill-opacity:1;stroke:none;stroke-width:0.264999;stroke-linejoin:round;stroke-opacity:1"
         d="m 42.971166,12.118862 0.04725,-0.826823 1.157552,-1.2992936 0.07087,1.9135046 -0.425222,0.803199 z"
         id="path1249" />
      <path
         style="fill:#b7c4c8;fill-opacity:1;stroke:none;stroke-width:0.264999;stroke-linejoin:round;stroke-opacity:1"
         d="m 44.175968,13.370907 -1.063059,-0.54334 -0.425222,0.614211 -0.921319,0.921317 0.283482,1.34654 1.015812,-0.448846 0.803199,-0.708706 z"
         id="path1251" />
      <path
         style="fill:#b7c4c8;fill-opacity:1;stroke:none;stroke-width:0.264999;stroke-linejoin:round;stroke-opacity:1"
         d="m 41.270274,14.52846 0.236236,2.078869 -0.04725,0.897693 -0.826823,0.330729 -0.897694,0.330729 -0.897694,-0.519717 0.566965,-0.897693 1.015812,-0.377976 0.165365,-1.063058 z"
         id="path1253" />
      <path
         style="fill:#b7c4c8;fill-opacity:1;stroke:none;stroke-width:0.264999;stroke-linejoin:round;stroke-opacity:1"
         d="m 39.994604,15.260789 0.04725,0.850446 -1.13393,0.377976 -0.354351,0.968564 -1.13393,1.204799 -1.535528,0.590588 0.07087,-0.850446 0.496094,-0.637835 -0.07087,-1.27567 1.464656,-0.897693 1.582778,0.02362 z"
         id="path1255" />
      <path
         style="fill:#b7c4c8;fill-opacity:1;stroke:none;stroke-width:0.264999;stroke-linejoin:round;stroke-opacity:1"
         d="m 36.451079,22.06436 0.779576,-0.685082 0.519716,-1.157552 1.063059,-0.779576 0.614212,-0.779576 -0.755955,-0.4016 -1.110302,1.015812 -1.086684,0.259858 -0.448847,0.259859 0.236236,1.417411 -0.118118,0.732328 z"
         id="path1257" />
    </g>
    <g
       id="g1173"
       transform="translate(-0.07015825,-0.04677217)">
      <path
         style="fill:#6f8a91;fill-opacity:1;stroke:none;stroke-width:0.264999;stroke-linejoin:round;stroke-opacity:1"
         d="m 36.214843,10.465216 1.960751,-1.8190106 1.53553,-0.6850819 1.063056,-0.2598587 -0.02363,0.8268229 -2.95294,2.1733633 -1.464657,0.165364 z"
         id="path1137" />
      <path
         style="fill:#6f8a91;fill-opacity:1;stroke:none;stroke-width:0.264999;stroke-linejoin:round;stroke-opacity:1"
         d="m 39.900111,7.2760416 1.110305,0.023625 2.763951,-2.5513392 0.377976,-1.3229166 0.14174,-0.9213171 -1.441032,0.9921876 -0.850447,1.2520461 -0.590587,0.1889879 -0.519719,1.2756697 -1.086681,0.5905879 z"
         id="path1139" />
      <path
         style="fill:#6f8a91;fill-opacity:1;stroke:none;stroke-width:0.264999;stroke-linejoin:round;stroke-opacity:1"
         d="M 41.199405,8.2446055 V 7.4650297 l 0.992188,-0.9921874 0.661458,0.8976934 0.803198,0.4960937 0.307105,0.9921875 -0.165365,0.779576 -1.346538,1.5827751 -0.921316,-0.259858 -0.519719,-1.9607521 z"
         id="path1141" />
      <path
         style="fill:#6f8a91;fill-opacity:1;stroke:none;stroke-width:0.264999;stroke-linejoin:round;stroke-opacity:1"
         d="m 42.734933,6.2838541 1.393786,-1.1339285 0.07087,1.8898809 -0.637834,0.2598587 z"
         id="path1143" />
      <path
         style="fill:#6f8a91;fill-opacity:1;stroke:none;stroke-width:0.264999;stroke-linejoin:round;stroke-opacity:1"
         d="m 40.726934,9.2840401 0.377975,1.4410339 -0.850444,1.015811 -2.291483,1.252046 -0.283482,-1.488281 0.803201,-0.87407 z"
         id="path1145" />
      <path
         style="fill:#6f8a91;fill-opacity:1;stroke:none;stroke-width:0.264999;stroke-linejoin:round;stroke-opacity:1"
         d="m 36.332961,11.481027 0.921316,0.07087 0.401601,1.606399 -0.283483,1.81901 -0.566965,0.614212 -0.614211,-0.09449 -0.118116,-0.779576 0.14174,-0.8032 -0.165364,-0.590587 z"
         id="path1147" />
      <path
         style="fill:#6f8a91;fill-opacity:1;stroke:none;stroke-width:0.264999;stroke-linejoin:round;stroke-opacity:1"
         d="m 38.0811,14.717448 0.09449,-1.27567 1.110305,-0.637835 0.850448,-0.330729 1.110305,-0.826823 1.133927,0.236235 0.07087,0.87407 -0.637837,0.732329 -2.834819,1.771764 z"
         id="path1149" />
      <path
         style="fill:#6f8a91;fill-opacity:1;stroke:none;stroke-width:0.264999;stroke-linejoin:round;stroke-opacity:1"
         d="m 42.971166,12.118862 0.04725,-0.826823 1.157552,-1.2992936 0.07087,1.9135046 -0.425222,0.803199 z"
         id="path1151" />
      <path
         style="fill:#6f8a91;fill-opacity:1;stroke:none;stroke-width:0.264999;stroke-linejoin:round;stroke-opacity:1"
         d="m 44.175968,13.370907 -1.063059,-0.54334 -0.425222,0.614211 -0.921319,0.921317 0.283482,1.34654 1.015812,-0.448846 0.803199,-0.708706 z"
         id="path1153" />
      <path
         style="fill:#6f8a91;fill-opacity:1;stroke:none;stroke-width:0.264999;stroke-linejoin:round;stroke-opacity:1"
         d="m 41.270274,14.52846 0.236236,2.078869 -0.04725,0.897693 -0.826823,0.330729 -0.897694,0.330729 -0.897694,-0.519717 0.566965,-0.897693 1.015812,-0.377976 0.165365,-1.063058 z"
         id="path1155" />
      <path
         style="fill:#6f8a91;fill-opacity:1;stroke:none;stroke-width:0.264999;stroke-linejoin:round;stroke-opacity:1"
         d="m 39.994604,15.260789 0.04725,0.850446 -1.13393,0.377976 -0.354351,0.968564 -1.13393,1.204799 -1.535528,0.590588 0.07087,-0.850446 0.496094,-0.637835 -0.07087,-1.27567 1.464656,-0.897693 1.582778,0.02362 z"
         id="path1157" />
      <path
         style="fill:#6f8a91;fill-opacity:1;stroke:none;stroke-width:0.264999;stroke-linejoin:round;stroke-opacity:1"
         d="m 36.451079,22.06436 0.779576,-0.685082 0.519716,-1.157552 1.063059,-0.779576 0.614212,-0.779576 -0.755955,-0.4016 -1.110302,1.015812 -1.086684,0.259858 -0.448847,0.259859 0.236236,1.417411 -0.118118,0.732328 z"
         id="path1159" />
    </g>
  </g>
</svg>
